<svg width="620" height="229" viewBox="0 0 620 229" fill="none" xmlns="http://www.w3.org/2000/svg">
<path d="M601.485 211.95V199.001H612.964V211.95H601.485Z" fill="#C62C1A"/>
<path d="M599.189 182.814V228.137H578.527V182.814H599.189Z" fill="#C62C1A"/>
<path d="M557.866 182.814V205.476H537.204V182.814H557.866Z" fill="#C62C1A"/>
<path d="M537.204 182.814V205.476H516.542V182.814H537.204Z" fill="#C62C1A"/>
<path d="M495.881 182.814V205.476H475.219V182.814H495.881Z" fill="#C62C1A"/>
<path d="M475.219 182.814V205.476H454.557V182.814H475.219Z" fill="#C62C1A"/>
<path d="M454.557 182.814V205.476H433.896V182.814H454.557Z" fill="#C62C1A"/>
<path d="M413.234 182.814V205.476H392.572V182.814H413.234Z" fill="#C62C1A"/>
<path d="M351.249 182.814V205.476H330.587V182.814H351.249Z" fill="#C62C1A"/>
<path d="M321.404 211.95V218.425H316.813V211.95H321.404Z" fill="#C62C1A"/>
<path d="M289.264 182.814V205.476H268.602V182.814H289.264Z" fill="#C62C1A"/>
<path d="M218.096 211.95H213.504V208.713H211.208V202.238H213.504V199.001H218.096V202.238H220.391V208.713H218.096V211.95Z" fill="#C62C1A"/>
<path d="M206.617 182.814V205.476H185.955V182.814H206.617Z" fill="#C62C1A"/>
<path d="M185.955 182.814V205.476H165.294V182.814H185.955Z" fill="#C62C1A"/>
<path d="M165.294 182.814V205.476H144.632V182.814H165.294Z" fill="#C62C1A"/>
<path d="M144.632 182.814V205.476H123.97V182.814H144.632Z" fill="#C62C1A"/>
<path d="M123.97 182.814V205.476H103.308V182.814H123.97Z" fill="#C62C1A"/>
<path d="M82.6468 182.814V205.476H61.9851V182.814H82.6468Z" fill="#C62C1A"/>
<path d="M61.9851 182.814V205.476H41.3234V182.814H61.9851Z" fill="#C62C1A"/>
<path d="M41.3234 182.814V205.476H20.6617V182.814H41.3234Z" fill="#C62C1A"/>
<path d="M11.4787 205.476V208.713H6.88721V205.476H11.4787Z" fill="#C62C1A"/>
<path d="M599.189 182.434V137.111H608.372V182.434H599.189Z" fill="#C62C1A"/>
<path d="M599.189 137.111V182.434H578.527V137.111H599.189Z" fill="#C62C1A"/>
<path d="M578.527 137.111V182.434H567.049V137.111H578.527Z" fill="#C62C1A"/>
<path d="M557.866 137.111V182.434H537.204V137.111H557.866Z" fill="#C62C1A"/>
<path d="M537.204 137.111V182.434H516.542V137.111H537.204Z" fill="#C62C1A"/>
<path d="M495.881 182.434V137.111H505.064V182.434H495.881Z" fill="#C62C1A"/>
<path d="M495.881 137.111V182.434H475.219V137.111H495.881Z" fill="#C62C1A"/>
<path d="M454.557 159.772H475.219V182.433H454.557V159.772Z" fill="#C62C1A"/>
<path d="M454.557 137.111V182.434H433.896V137.111H454.557Z" fill="#C62C1A"/>
<path d="M433.896 137.111V182.434H422.417V137.111H433.896Z" fill="#C62C1A"/>
<path d="M392.572 182.434V137.111H401.755V182.434H392.572Z" fill="#C62C1A"/>
<path d="M392.572 137.111V182.434H371.911V137.111H392.572Z" fill="#C62C1A"/>
<path d="M362.728 166.247H358.136V163.009H355.84V156.535H358.136V153.297H362.728V156.535H365.023V163.009H362.728V166.247Z" fill="#C62C1A"/>
<path d="M351.249 137.111V182.434H330.587V137.111H351.249Z" fill="#C62C1A"/>
<path d="M330.587 137.111V182.434H319.108V137.111H330.587Z" fill="#C62C1A"/>
<path d="M227.279 137.111V182.434H206.617V137.111H227.279Z" fill="#C62C1A"/>
<path d="M206.617 137.111V182.434H185.955V137.111H206.617Z" fill="#C62C1A"/>
<path d="M156.111 166.247V172.721H151.519V166.247H156.111Z" fill="#C62C1A"/>
<path d="M144.632 137.111V182.434H123.97V137.111H144.632Z" fill="#C62C1A"/>
<path d="M123.97 137.111V182.434H103.308V137.111H123.97Z" fill="#C62C1A"/>
<path d="M82.6467 182.434V137.111H91.8297V182.434H82.6467Z" fill="#C62C1A"/>
<path d="M82.6468 137.111V182.434H61.9851V137.111H82.6468Z" fill="#C62C1A"/>
<path d="M62 166V182H41V166H62Z" fill="#C62C1A"/>
<path d="M41.3234 137.111V182.434H20.6617V137.111H41.3234Z" fill="#C62C1A"/>
<path d="M20.6617 137.111V182.434H9.18298V137.111H20.6617Z" fill="#C62C1A"/>
<path d="M599.189 136.73V91.4072H608.372V136.73H599.189Z" fill="#C62C1A"/>
<path d="M599.189 91.4072V136.73H587.71V91.4072H599.189Z" fill="#C62C1A"/>
<path d="M578.527 91.4072V136.73H567.049V91.4072H578.527Z" fill="#C62C1A"/>
<path d="M557.866 91.4072V136.73H537.204V91.4072H557.866Z" fill="#C62C1A"/>
<path d="M537.204 91.4072V136.73H525.725V91.4072H537.204Z" fill="#C62C1A"/>
<path d="M495.881 136.73V91.4072H505.064V136.73H495.881Z" fill="#C62C1A"/>
<path d="M495.881 91.4072V136.73H475.219V91.4072H495.881Z" fill="#C62C1A"/>
<path d="M475.219 91.4072V136.73H463.74V91.4072H475.219Z" fill="#C62C1A"/>
<path d="M433.896 136.73V91.4072H443.078V136.73H433.896Z" fill="#C62C1A"/>
<path d="M433.896 91.4072V136.73H413.234V91.4072H433.896Z" fill="#C62C1A"/>
<path d="M371.911 114.069H392.572V136.73H371.911V114.069Z" fill="#C62C1A"/>
<path d="M371.91 91.4072V114.069H351.249V91.4072H371.91Z" fill="#C62C1A"/>
<path d="M351.249 91.4072V114.069H330.587V91.4072H351.249Z" fill="#C62C1A"/>
<path d="M330.587 91.4072V136.73H319.108V91.4072H330.587Z" fill="#C62C1A"/>
<path d="M227.279 136.73V91.4072H236.462V136.73H227.279Z" fill="#C62C1A"/>
<path d="M227.279 91.4072V136.73H206.617V91.4072H227.279Z" fill="#C62C1A"/>
<path d="M206.617 91.4072V136.73H195.138V91.4072H206.617Z" fill="#C62C1A"/>
<path d="M156.111 114.069V117.306H151.519V114.069H156.111Z" fill="#C62C1A"/>
<path d="M144.632 91.4072V136.73H123.97V91.4072H144.632Z" fill="#C62C1A"/>
<path d="M123.97 91.4072V136.73H112.491V91.4072H123.97Z" fill="#C62C1A"/>
<path d="M83 114H90V137H83V114Z" fill="#C62C1A"/>
<path d="M61.9851 114.069H82.6468V136.73H61.9851V114.069Z" fill="#C62C1A"/>
<path d="M41.3234 91.4072V136.73H20.6617V91.4072H41.3234Z" fill="#C62C1A"/>
<path d="M20.6617 91.4072V136.73H0V91.4072H20.6617Z" fill="#C62C1A"/>
<path d="M619.851 45.7036V91.0264H599.189V45.7036H619.851Z" fill="#C62C1A"/>
<path d="M599.189 45.7036V91.0264H587.71V45.7036H599.189Z" fill="#C62C1A"/>
<path d="M557.866 91.0264V45.7036H567.049V91.0264H557.866Z" fill="#C62C1A"/>
<path d="M557.866 45.7036V91.0264H537.204V45.7036H557.866Z" fill="#C62C1A"/>
<path d="M528.021 74.8395H523.43V71.6022H521.134V65.1275H523.43V61.8901H528.021V65.1275H530.317V71.6022H528.021V74.8395Z" fill="#C62C1A"/>
<path d="M495.881 91.0264V45.7036H505.064V91.0264H495.881Z" fill="#C62C1A"/>
<path d="M495.881 45.7036V91.0264H475.219V45.7036H495.881Z" fill="#C62C1A"/>
<path d="M475.219 45.7036V91.0264H454.557V45.7036H475.219Z" fill="#C62C1A"/>
<path d="M436.191 74.8395V61.8901H447.67V74.8395H436.191Z" fill="#C62C1A"/>
<path d="M433.896 45.7036V91.0264H413.234V45.7036H433.896Z" fill="#C62C1A"/>
<path d="M404.051 68.3647V71.6021H399.459V68.3647H404.051Z" fill="#C62C1A"/>
<path d="M392.572 45.7036V91.0264H371.911V45.7036H392.572Z" fill="#C62C1A"/>
<path d="M330.587 68.3647H351.249V91.0261H330.587V68.3647Z" fill="#C62C1A"/>
<path d="M330.587 45.7036V68.365H309.925V45.7036H330.587Z" fill="#C62C1A"/>
<path d="M227.279 45.7036V91.0264H206.617V45.7036H227.279Z" fill="#C62C1A"/>
<path d="M206.617 45.7036V91.0264H185.955V45.7036H206.617Z" fill="#C62C1A"/>
<path d="M146.928 74.8395V61.8901H158.406V74.8395H146.928Z" fill="#C62C1A"/>
<path d="M144.632 45.7036V91.0264H123.97V45.7036H144.632Z" fill="#C62C1A"/>
<path d="M123.97 45.7036V91.0264H103.308V45.7036H123.97Z" fill="#C62C1A"/>
<path d="M84.9425 74.8395V61.8901H96.4212V74.8395H84.9425Z" fill="#C62C1A"/>
<path d="M62 91V46H77V91H62Z" fill="#C62C1A"/>
<path d="M41.3234 45.7036V91.0264H20.6617V45.7036H41.3234Z" fill="#C62C1A"/>
<path d="M20.6617 45.7036V91.0264H9.18298V45.7036H20.6617Z" fill="#C62C1A"/>
<path d="M578.527 22.6616H599.189V45.323H578.527V22.6616Z" fill="#C62C1A"/>
<path d="M557.866 0V45.3227H546.387V0H557.866Z" fill="#C62C1A"/>
<path d="M495.881 45.3227V0H505.064V45.3227H495.881Z" fill="#C62C1A"/>
<path d="M475.219 22.6616H495.881V45.323H475.219V22.6616Z" fill="#C62C1A"/>
<path d="M445.374 29.1359H440.783V25.8985H438.487V19.4239H440.783V16.1865H445.374V19.4239H447.67V25.8985H445.374V29.1359Z" fill="#C62C1A"/>
<path d="M413.234 22.6616H433.896V45.323H413.234V22.6616Z" fill="#C62C1A"/>
<path d="M351.249 22.6616H371.91V45.323H351.249V22.6616Z" fill="#C62C1A"/>
<path d="M330.587 22.6616H351.249V45.323H330.587V22.6616Z" fill="#C62C1A"/>
<path d="M309.925 22.6616H330.587V45.323H309.925V22.6616Z" fill="#C62C1A"/>
<path d="M185.955 22.6616H206.617V45.323H185.955V22.6616Z" fill="#C62C1A"/>
<path d="M165.294 22.6616H185.955V45.323H165.294V22.6616Z" fill="#C62C1A"/>
<path d="M144.632 22.6616H165.294V45.323H144.632V22.6616Z" fill="#C62C1A"/>
<path d="M123.97 22.6616H144.632V45.323H123.97V22.6616Z" fill="#C62C1A"/>
<path d="M114.787 22.6616V25.899H110.196V22.6616H114.787Z" fill="#C62C1A"/>
<path d="M73.4638 22.6616V25.899H68.8723V22.6616H73.4638Z" fill="#C62C1A"/>
<path d="M41.3234 22.6616H61.9851V45.323H41.3234V22.6616Z" fill="#C62C1A"/>
<path d="M20.6617 22.6616H41.3234V45.323H20.6617V22.6616Z" fill="#C62C1A"/>
</svg>
